<svg xmlns="http://www.w3.org/2000/svg" width="114.628" height="47.979" viewBox="0 0 114.628 47.979">
  <g id="Grupo_9" data-name="Grupo 9" transform="translate(-51.816 -46.314)">
    <path id="Trazado_1" data-name="Trazado 1" d="M2661.079,644.07c.021-.228.135-.434.15-.663.066-.012.074-.057.064-.112l.066-.361c.065-.011.073-.055.063-.11.021-.228.135-.434.151-.664.066-.012.074-.056.063-.112l.066-.361c.047-.01.091-.021.042-.081l0-.091c.1-.054.1-.149.1-.242a2.155,2.155,0,0,1,.136-.549,1.989,1.989,0,0,0,.093-.409c.129-.43.207-.878.353-1.3s.191-.84.341-1.242.211-.833.338-1.243a1.6,1.6,0,0,1,.114-.289,1.309,1.309,0,0,0,.095-.43c.026-.165.128-.3.146-.457.007-.065.05-.079.105-.079h6.636a6.157,6.157,0,0,1,1.282.094,2.79,2.79,0,0,1,1.139.455,1.645,1.645,0,0,1,.662,1.226,4.531,4.531,0,0,1-.443,2.248,4.118,4.118,0,0,1-1.235,1.591,6.15,6.15,0,0,1-.6.389c0,.025,0,.044.009.051a1.685,1.685,0,0,1,.506,1.211,4.307,4.307,0,0,1-.134,1.383,18.136,18.136,0,0,0-.374,1.778c-.015.1-.046.135-.147.135-.866-.006-1.732-.007-2.6-.01a.088.088,0,0,0-.058-.059c.032-.434.077-.867.139-1.3.026-.179.12-.341.15-.521a2.715,2.715,0,0,0,.015-1.107,1,1,0,0,0-.435-.641,2.044,2.044,0,0,0-.94-.3c-.378-.03-.757-.026-1.137-.026q-.8,0-1.61,0c-.165,0-.174.012-.217.17q-.331,1.212-.665,2.424c-.109.4-.215.794-.326,1.19-.05.18-.054.18-.244.18-.7,0-1.4,0-2.1,0a.38.38,0,0,1-.234-.032c-.009-.13.07-.245.065-.375.065-.011.073-.055.064-.11.021-.228.134-.435.15-.663.066-.012.074-.056.064-.112l.066-.36c.065-.011.073-.055.064-.11Zm3.832-4.487h1.74q.966,0,1.931,0a1.7,1.7,0,0,0,.995-.284,1.1,1.1,0,0,0,.5-.923.532.532,0,0,0-.3-.5,1.165,1.165,0,0,0-.557-.134c-1.23,0-2.46,0-3.69,0a.164.164,0,0,0-.192.145c-.133.511-.278,1.02-.417,1.529a.253.253,0,0,0-.006.174Z" transform="translate(-2552.333 -576.041)" fill="#09f"/>
    <path id="Trazado_2" data-name="Trazado 2" d="M4731.056,639.008a.057.057,0,0,0,.029-.08l.024-.055c.058-.021.06-.078.072-.123.074-.267.216-.506.307-.765a5.378,5.378,0,0,1,.774-1.335,2.117,2.117,0,0,1,.581-.607.167.167,0,0,0,.1-.081,3.7,3.7,0,0,1,1.035-.518,4.913,4.913,0,0,1,1.439-.189h6.078a.216.216,0,0,1,.14.025,2.254,2.254,0,0,1-.134.542c-.146.564-.307,1.125-.462,1.687a.256.256,0,0,1-.27.207h-5.347a2.281,2.281,0,0,0-.757.078.68.68,0,0,0-.4.293,4.416,4.416,0,0,0-.411,1.223h6.647c.01.036.023.058.019.074-.2.706-.4,1.411-.586,2.118-.024.092-.064.115-.146.111-.051,0-.1,0-.15,0h-6.271c-.175,0-.179,0-.218.163-.07.291-.139.583-.2.875a1.316,1.316,0,0,0-.023.277.36.36,0,0,0,.347.41,2.66,2.66,0,0,0,.405.038c.437.006.874,0,1.31,0h4.411a3.991,3.991,0,0,1-.158.646c-.145.536-.291,1.072-.441,1.606-.049.175-.056.174-.229.176-.258,0-.516.005-.773.005q-2.706,0-5.412,0a5.04,5.04,0,0,1-1.109-.105c-.146-.033-.291-.071-.433-.112a1.437,1.437,0,0,1-.458-.334,1.362,1.362,0,0,1-.419-1.065,6.242,6.242,0,0,1,.143-1.556,9.078,9.078,0,0,1,.3-1.336c.076-.217.1-.445.186-.66.057-.147.062-.312.108-.466a2.177,2.177,0,0,1,.073-.236,7.626,7.626,0,0,0,.267-.89l.015-.045Z" transform="translate(-4577.218 -576.021)" fill="#09f"/>
    <path id="Trazado_3" data-name="Trazado 3" d="M1088.706,636.055c.041.007.067-.021.094-.043a3.971,3.971,0,0,1,2.527-.829c2.276,0,4.553,0,6.829,0a.279.279,0,0,1,.167.021.41.41,0,0,1-.036.228c-.177.646-.359,1.29-.531,1.937-.034.128-.1.143-.215.143-1.06,0-2.119,0-3.178,0q-1.632,0-3.264,0a1.125,1.125,0,0,0-1.157,1.109.533.533,0,0,0,.56.613c.2.008.4,0,.6,0,1.181,0,2.362,0,3.543,0a2.413,2.413,0,0,1,1.36.382,2.085,2.085,0,0,1,.9,1.329,3.628,3.628,0,0,1-.5,2.611,4.367,4.367,0,0,1-1.453,1.551,4.181,4.181,0,0,1-.979.464,3.7,3.7,0,0,1-1.2.165l-6.786,0c-.106,0-.252.044-.306-.032s-.006-.247.035-.342a2.083,2.083,0,0,0,.156-.505c.037-.245.135-.471.186-.711.047-.222.14-.443.195-.67a.1.1,0,0,1,.109-.082h.172q3.221,0,6.443,0a1.125,1.125,0,0,0,.674-.177,1.45,1.45,0,0,0,.578-.662.717.717,0,0,0-.7-1.026c-1.174.016-2.348,0-3.522.006a4.5,4.5,0,0,1-1.485-.167,2.151,2.151,0,0,1-.643-.364,1.709,1.709,0,0,1-.415-.458,1.663,1.663,0,0,1-.3-.724,4.824,4.824,0,0,1-.025-.9,4.39,4.39,0,0,1,.842-2.088,4.666,4.666,0,0,1,.555-.617c.044-.043.113-.068.121-.142l.043-.031Z" transform="translate(-1011.229 -575.951)" fill="#09f"/>
    <path id="Trazado_4" data-name="Trazado 4" d="M2156.508,630.232c.07-.032.066-.107.089-.163.12-.292.211-.6.357-.878a7.607,7.607,0,0,1,.924-1.406,3.98,3.98,0,0,1,.351-.43,8.417,8.417,0,0,1,.992-.763,6.4,6.4,0,0,1,2.48-.912,10.842,10.842,0,0,1,2.311-.122,6.513,6.513,0,0,1,1.792.3,3.093,3.093,0,0,1,1.417.88,2.808,2.808,0,0,1,.643,1.54,6.363,6.363,0,0,1-.163,2.148,11.108,11.108,0,0,1-.651,2.056,6.73,6.73,0,0,1-1.871,2.579,6.1,6.1,0,0,1-2.71,1.269,10.412,10.412,0,0,1-3.776.066,6.845,6.845,0,0,1-.805-.215,3.83,3.83,0,0,1-.931-.524,2.084,2.084,0,0,1-.593-.68,2.467,2.467,0,0,1-.356-1.036,2.1,2.1,0,0,1-.068-.286,8.842,8.842,0,0,1,.217-2.1q.1-.384.2-.767c.043-.167.085-.333.128-.5l.024-.055Zm4.535,4a5.348,5.348,0,0,0,.792-.046,2.744,2.744,0,0,0,2.042-1.236,4.65,4.65,0,0,0,.335-.6,9.27,9.27,0,0,0,.608-1.872,4.543,4.543,0,0,0,.126-1.255,1.261,1.261,0,0,0-.968-1.241c-.034-.01-.068-.021-.1-.029a4.877,4.877,0,0,0-2.4.069,2.647,2.647,0,0,0-1.29.85,3.9,3.9,0,0,0-.524.808,8.715,8.715,0,0,0-.648,1.948,4.667,4.667,0,0,0-.133,1.276,1.2,1.2,0,0,0,.951,1.2,4.194,4.194,0,0,0,1.212.128Z" transform="translate(-2058.508 -566.521)" fill="#09f"/>
    <path id="Trazado_5" data-name="Trazado 5" d="M1601.857,635.105h3.006a4.916,4.916,0,0,1,1.681.274,2.389,2.389,0,0,1,.794.453A2.03,2.03,0,0,1,1608,637.4a5.082,5.082,0,0,1-.408,1.961,4.362,4.362,0,0,1-.745,1.245,4.234,4.234,0,0,1-2.2,1.331,6.743,6.743,0,0,1-1.719.217h-3.779c-.217,0-.222,0-.282.217q-.3,1.07-.591,2.141c-.091.329-.184.658-.27.988a.18.18,0,0,1-.209.155c-.744,0-1.488,0-2.233,0-.147,0-.205-.058-.141-.182a2.912,2.912,0,0,0,.212-.723c.071-.322.18-.634.256-.953.068-.284.181-.567.247-.856a6.473,6.473,0,0,0,.217-.858c.009-.093.085-.19.108-.293.037-.166.073-.335.114-.5s.088-.306.125-.464c.027-.117.1-.233.121-.358.051-.3.189-.574.219-.88.009-.095.086-.19.109-.293.036-.167.071-.336.113-.5s.09-.306.124-.465c.024-.11.088-.22.118-.336.04-.151.059-.31.1-.456a3.88,3.88,0,0,0,.12-.445,2.174,2.174,0,0,1,.116-.314c.051-.141.029-.3.089-.433.13-.29.162-.609.275-.9a.746.746,0,0,0,.034-.188c.015-.151.027-.166.181-.168.115,0,.229,0,.343,0h3.092v.005Zm-2.257,4.71a.4.4,0,0,0,.191.018c1.2,0,2.39-.008,3.585,0a1.562,1.562,0,0,0,1.5-1.237.809.809,0,0,0-.636-1.005,1.346,1.346,0,0,0-.34-.034h-2.4c-.386,0-.773,0-1.159,0-.108,0-.158.025-.189.145-.165.636-.344,1.269-.519,1.9a.373.373,0,0,0-.028.208Z" transform="translate(-1510.009 -575.866)" fill="#09f"/>
    <path id="Trazado_6" data-name="Trazado 6" d="M4225.215,636.082a3.277,3.277,0,0,1,.609-.354,6.285,6.285,0,0,1,1.227-.344,8.3,8.3,0,0,1,1.411-.1h5.411c.064,0,.127.005.185.008.04.069,0,.123-.016.172-.052.136-.056.283-.1.419a.857.857,0,0,0-.094.422,5.685,5.685,0,0,0-.289.935,1.285,1.285,0,0,0-.067.286c-.013.15-.077.2-.221.208h-.128q-2.77,0-5.541,0a3.534,3.534,0,0,0-.727.047.992.992,0,0,0-.749.714c-.078.213-.161.424-.219.643a.313.313,0,0,0-.02.2h7.069a3.053,3.053,0,0,1-.148.589c-.137.515-.279,1.028-.418,1.542-.048.18-.046.182-.246.182h-6.678c-.266,0-.259,0-.33.265-.141.522-.291,1.042-.435,1.563-.126.458-.25.918-.376,1.377-.079.288-.167.574-.236.864-.028.12-.1.118-.191.118l-1.353.005h-.859a.637.637,0,0,1-.209-.015c.045-.236.13-.453.194-.675a5.567,5.567,0,0,0,.222-.87c.014-.122.1-.218.114-.332.033-.267.162-.506.2-.775a1.148,1.148,0,0,1,.127-.41,2.726,2.726,0,0,0,.122-.509,3.959,3.959,0,0,1,.231-.751,2.3,2.3,0,0,0,.11-.471,4.846,4.846,0,0,1,.239-.79,2.622,2.622,0,0,0,.084-.392c.135-.43.271-.861.418-1.288a5.146,5.146,0,0,1,.346-.88,5.678,5.678,0,0,1,.511-.819,5.914,5.914,0,0,0,.5-.549c.05-.08.17-.074.221-.16a.167.167,0,0,0,.107-.078Z" transform="translate(-4079.665 -576.052)" fill="#09f"/>
    <path id="Trazado_7" data-name="Trazado 7" d="M3275.478,635.829c-.088.456-.246.893-.359,1.343-.06.241-.131.479-.2.719-.049.174-.049.176-.229.176h-3.264c-.275,0-.274,0-.35.269-.219.786-.443,1.572-.66,2.359-.248.9-.488,1.8-.735,2.695-.209.76-.426,1.518-.634,2.278-.047.172-.1.343-.138.515-.029.133-.088.156-.2.155-.573,0-1.145,0-1.718,0h-.6c-.076,0-.108-.008-.08-.112a2.992,2.992,0,0,1,.186-.571,1.5,1.5,0,0,0,.075-.372c.044-.2.125-.392.157-.6.017-.107.094-.2.116-.311a8.931,8.931,0,0,0,.221-.892c.013-.131.1-.228.126-.352.053-.3.187-.586.218-.893.013-.131.1-.228.125-.352.054-.3.179-.587.222-.893.012-.089.073-.175.081-.252.029-.278.175-.517.223-.788a3.636,3.636,0,0,1,.26-.931,2.265,2.265,0,0,0,.1-.433c.041-.166.093-.329.143-.5a.683.683,0,0,0-.235-.015H3265.1c-.255,0-.277-.024-.19-.263a1.526,1.526,0,0,0,.106-.4.846.846,0,0,1,.112-.29,1.951,1.951,0,0,0,.075-.394c.045-.163.135-.307.168-.473a.888.888,0,0,1,.066-.326c.073-.013.072-.068.072-.123.057,0,.114-.009.171-.009h9.6c.05,0,.1,0,.15.006l.045.037Z" transform="translate(-3143.61 -576.541)" fill="#09f"/>
    <path id="Trazado_8" data-name="Trazado 8" d="M3692.013,635.3c-.082.43-.226.841-.336,1.261-.121.461-.263.917-.38,1.38-.051.2-.116.4-.171.6s-.117.4-.16.6c-.064.293-.17.573-.238.864s-.176.573-.242.864c-.089.391-.222.771-.282,1.168a2.689,2.689,0,0,0-.037.577.9.9,0,0,0,.729.89,4.351,4.351,0,0,0,1.125.127h3.435a.679.679,0,0,1,.253.02l-.192.7c-.122.445-.248.89-.365,1.337a.178.178,0,0,1-.205.159c-1.489-.013-2.978.023-4.465-.022a4.22,4.22,0,0,1-1.327-.221,3.015,3.015,0,0,1-.87-.47,1.4,1.4,0,0,1-.335-.375,2.448,2.448,0,0,1-.336-.606,3.864,3.864,0,0,1-.121-1.031,6.366,6.366,0,0,1,.142-1.148c.1-.495.248-.978.36-1.47.148-.193.1-.451.215-.654a.926.926,0,0,0,.07-.349c.038-.244.218-.447.188-.705.179-.277.111-.63.281-.913.04-.066.008-.173.041-.247.17-.392.184-.828.336-1.221.094-.242.126-.5.232-.735a.483.483,0,0,0,.053-.228c-.012-.13.043-.163.156-.163l2.383,0a.247.247,0,0,1,.064.02Z" transform="translate(-3557.152 -576.046)" fill="#09f"/>
    <path id="Trazado_9" data-name="Trazado 9" d="M4062.35,645.822a2.788,2.788,0,0,1,.21-.779.253.253,0,0,0,.021-.083c.056-.287.177-.559.208-.851.015-.138.1-.243.129-.373.055-.3.184-.584.219-.892a.614.614,0,0,1,.082-.233,2.573,2.573,0,0,0,.131-.529,4.124,4.124,0,0,1,.23-.751,2.3,2.3,0,0,0,.111-.47,6.345,6.345,0,0,1,.235-.792,2.98,2.98,0,0,0,.113-.469,4.55,4.55,0,0,1,.229-.772,2.656,2.656,0,0,0,.115-.468,4.451,4.451,0,0,1,.227-.772,2.58,2.58,0,0,0,.114-.489c.019-.088.074-.175.082-.252.03-.278.187-.515.22-.789a1.134,1.134,0,0,1,.128-.453.315.315,0,0,0,.045-.163c0-.124.056-.165.168-.165l2.382,0a.229.229,0,0,1,.057.022c-.059.222-.117.447-.179.672-.129.474-.261.948-.392,1.422-.07.255-.14.51-.211.765-.1.37-.216.738-.311,1.11-.114.448-.258.888-.368,1.336-.119.484-.271.96-.4,1.442-.166.624-.339,1.247-.512,1.87-.166.6-.337,1.19-.5,1.788-.026.1-.065.127-.159.127-.773,0-1.545,0-2.318,0a1.027,1.027,0,0,1-.111-.015Z" transform="translate(-3923.956 -576.046)" fill="#09f"/>
    <path id="Trazado_10" data-name="Trazado 10" d="M2009.705,2012.259a1.684,1.684,0,0,0,.175-.267.61.61,0,0,1,.183-.208,2.043,2.043,0,0,1,1.921-.384,1.245,1.245,0,0,1,.879.965,2.812,2.812,0,0,1,.087.7q0,1.7,0,3.393c0,.036,0,.072,0,.108,0,.07-.025.105-.1.105q-.58,0-1.16,0c-.073,0-.1-.032-.1-.1,0-.05,0-.1,0-.15q0-1.471,0-2.942a1.781,1.781,0,0,0-.076-.65.641.641,0,0,0-.419-.368.917.917,0,0,0-.76.266,1.645,1.645,0,0,0-.474.8,2.552,2.552,0,0,0-.087.722c0,.723,0,1.446,0,2.169,0,.05,0,.1,0,.15,0,.069-.024.106-.1.106h-1.138c-.06,0-.094-.025-.094-.088s0-.115,0-.172c0-1.009-.005-2.018,0-3.028a2.245,2.245,0,0,0-.133-.676.289.289,0,0,0-.231-.2,1.026,1.026,0,0,0-1.2.591,2.114,2.114,0,0,0-.251,1.046q0,1.138,0,2.276c0,.05,0,.1,0,.15,0,.074-.038.1-.107.1-.143,0-.286,0-.429,0-.229,0-.458,0-.687,0-.1,0-.147-.032-.136-.135a1.012,1.012,0,0,0,0-.107q0-2.384,0-4.767c0-.246-.031-.233.228-.233.3,0,.6,0,.9,0,.15,0,.154,0,.149.159s-.018.328-.028.492c-.014.074-.028.148-.043.229.084-.024.1-.088.117-.145a1.592,1.592,0,0,0,.188-.259c.046-.1.151-.126.228-.186a1.916,1.916,0,0,1,1.814-.311,1.1,1.1,0,0,1,.654.524c.059.1.112.213.168.32,0,.019.006.052.016.054C2009.7,2012.316,2009.7,2012.282,2009.705,2012.259Z" transform="translate(-1911.076 -1922.506)" fill="#09f"/>
    <path id="Trazado_11" data-name="Trazado 11" d="M2440.992,1905.73c.118-.1.194-.231.323-.329a1.82,1.82,0,0,1,1.258-.345,1.748,1.748,0,0,1,1.682,1.473,4.058,4.058,0,0,1-.007,1.972,2.559,2.559,0,0,1-1.1,1.578,2.646,2.646,0,0,1-1.286.411,5.862,5.862,0,0,1-1.178-.029.312.312,0,0,0-.064-.005,4.363,4.363,0,0,1-.957-.175c-.069-.009-.079-.046-.079-.1s0-.1,0-.15q0-3.531,0-7.062c0-.286-.03-.26.268-.26.315,0,.63,0,.944,0,.109,0,.15.032.149.147-.006.8,0,1.6-.01,2.4,0,.157-.02.314-.031.471a.237.237,0,0,0-.023.178.35.35,0,0,0,.114-.175Zm-.052,2.626c0,.308,0,.566,0,.823,0,.16,0,.162.161.2a2.359,2.359,0,0,0,.511.049,1.167,1.167,0,0,0,1.225-.9,3.118,3.118,0,0,0,.1-1.231,1.9,1.9,0,0,0-.17-.682.729.729,0,0,0-.686-.431.881.881,0,0,0-.685.3,1.782,1.782,0,0,0-.414.88,5.648,5.648,0,0,0-.045,1Z" transform="translate(-2336.055 -1816.239)" fill="#09f"/>
    <path id="Trazado_12" data-name="Trazado 12" d="M4155.469,1909.712a1.777,1.777,0,0,1-1.66.833,2.1,2.1,0,0,1-.549-.063,1.655,1.655,0,0,1-1-.884,2.932,2.932,0,0,1-.26-1.125,3.9,3.9,0,0,1,.025-.985,2.057,2.057,0,0,1,.144-.646,4.464,4.464,0,0,1,.464-.822,2.516,2.516,0,0,1,1.872-.911,5.516,5.516,0,0,1,.751.008c.161.009.164.005.164-.161q0-.977,0-1.955c0-.05,0-.1,0-.15-.005-.083.032-.113.113-.113q.558,0,1.117,0c.082,0,.118.031.112.114,0,.05,0,.1,0,.15v7.173c0,.287.027.257-.247.258s-.559,0-.838,0c-.167,0-.168,0-.168-.162a3.788,3.788,0,0,1,.036-.556c.008-.037.042-.088-.014-.1-.031-.008-.047.044-.059.078a.146.146,0,0,0,0,.021Zm-.052-2.518v-.821c0-.067,0-.125-.09-.142a2.358,2.358,0,0,0-.937-.031,1.155,1.155,0,0,0-.891.916,3.442,3.442,0,0,0-.068,1.32,1.639,1.639,0,0,0,.154.555.731.731,0,0,0,.686.432.9.9,0,0,0,.752-.385,1.975,1.975,0,0,0,.36-.907A6.566,6.566,0,0,0,4155.417,1907.194Z" transform="translate(-4011.657 -1816.271)" fill="#09f"/>
    <path id="Trazado_13" data-name="Trazado 13" d="M2851.237,2016.033a1.84,1.84,0,0,1-.966.67,2.19,2.19,0,0,1-1.209,0,1.14,1.14,0,0,1-.849-.884,2.179,2.179,0,0,1,0-.726,1.518,1.518,0,0,1,.705-1.051,3.518,3.518,0,0,1,1.73-.539c.156-.015.313-.023.471-.03.061,0,.093-.024.092-.088a1.228,1.228,0,0,0-.094-.6.7.7,0,0,0-.569-.391,2.67,2.67,0,0,0-1.119.1,8.158,8.158,0,0,0-.785.279c-.035-.338-.064-.656-.1-.973-.016-.126.033-.178.148-.212a6.606,6.606,0,0,1,1.024-.22,4.842,4.842,0,0,1,1.327-.005,2.438,2.438,0,0,1,.846.274,1.259,1.259,0,0,1,.6.8,2.5,2.5,0,0,1,.092.677c0,1.138-.015,2.276.016,3.414,0,.148,0,.153-.133.154-.337,0-.673,0-1.01,0-.09,0-.129-.027-.125-.123.008-.172.007-.344.01-.515a.3.3,0,0,0,.019-.192.439.439,0,0,0-.113.187Zm-1.132-.294a1.165,1.165,0,0,0,.242-.03,1.263,1.263,0,0,0,.866-1.246c0-.089-.045-.105-.121-.105a3.275,3.275,0,0,0-1.037.146,1.08,1.08,0,0,0-.3.155.637.637,0,0,0-.243.7A.566.566,0,0,0,2850.1,2015.739Z" transform="translate(-2735.877 -1922.51)" fill="#09f"/>
    <path id="Trazado_14" data-name="Trazado 14" d="M3375.234,2013.436a1.356,1.356,0,0,0-.061-.563.658.658,0,0,0-.435-.425,2.156,2.156,0,0,0-.937-.029,3.022,3.022,0,0,0-.974.306.284.284,0,0,1-.158.044c-.034-.337-.066-.676-.1-1.014-.012-.111.07-.129.143-.152a5.91,5.91,0,0,1,1-.22,4.762,4.762,0,0,1,1.6.033,1.933,1.933,0,0,1,.633.249,1.38,1.38,0,0,1,.621,1.05,3.915,3.915,0,0,1,.036.556c0,1.08-.012,2.16.014,3.24,0,.179,0,.181-.168.182q-.461,0-.923,0c-.167,0-.169,0-.17-.163s0-.315,0-.472a.448.448,0,0,0,.02-.186.378.378,0,0,0-.113.179,1.876,1.876,0,0,1-.928.657,2.262,2.262,0,0,1-1.249.008,1.109,1.109,0,0,1-.48-.289,1.129,1.129,0,0,1-.344-.54,2.717,2.717,0,0,1-.043-.483,1.236,1.236,0,0,1,.39-1.051,2.2,2.2,0,0,1,.925-.6,5.358,5.358,0,0,1,1.466-.252l.192-.015C3375.229,2013.484,3375.239,2013.467,3375.234,2013.436Zm-.312.946a2.462,2.462,0,0,0-.49.053,1.466,1.466,0,0,0-.674.259.637.637,0,0,0-.222.692.562.562,0,0,0,.568.373.863.863,0,0,0,.276-.032,1.209,1.209,0,0,0,.846-1.014c.064-.323.042-.341-.3-.33Z" transform="translate(-3248.655 -1922.531)" fill="#09f"/>
    <path id="Trazado_15" data-name="Trazado 15" d="M1726.58,2015.978c-.121.12-.187.265-.311.385a1.682,1.682,0,0,1-.883.454,2.051,2.051,0,0,1-1.2-.12,1.182,1.182,0,0,1-.6-.6,1.881,1.881,0,0,1-.122-.8,1.394,1.394,0,0,1,.416-.948,1.9,1.9,0,0,1,.8-.521,5.036,5.036,0,0,1,1.573-.288c.223-.007.224-.016.221-.248a1.856,1.856,0,0,0-.012-.257.62.62,0,0,0-.458-.52,2.176,2.176,0,0,0-1.291.024,4.029,4.029,0,0,0-.769.273c-.058-.04-.047-.095-.052-.142-.03-.277-.054-.555-.089-.832a.151.151,0,0,1,.122-.19,5.682,5.682,0,0,1,2.415-.229,2.663,2.663,0,0,1,.577.147,1.368,1.368,0,0,1,.884,1.142,3.253,3.253,0,0,1,.038.555q0,1.459.007,2.918c0,.143.01.286.021.428.008.1-.031.125-.123.125q-.515,0-1.03,0c-.091,0-.131-.03-.126-.124.012-.214.02-.428.03-.642,0-.018,0-.035,0-.052-.028.016-.045.032-.043.053Zm-.428-1.55a3.184,3.184,0,0,0-.79.131,1.074,1.074,0,0,0-.394.211.627.627,0,0,0-.178.683.551.551,0,0,0,.537.353.962.962,0,0,0,.625-.185,1.217,1.217,0,0,0,.515-.88c.044-.4.016-.308-.315-.312Z" transform="translate(-1635.327 -1922.577)" fill="#09f"/>
    <path id="Trazado_16" data-name="Trazado 16" d="M4440.283,2016.1a2,2,0,0,1-1.127.76,1.064,1.064,0,0,1-.276.018,3.178,3.178,0,0,1-.8-.056,1.087,1.087,0,0,1-.518-.341,1.037,1.037,0,0,1-.33-.571,2.219,2.219,0,0,1-.014-.282,1.557,1.557,0,0,1,.173-.921,1.828,1.828,0,0,1,.655-.635,3.852,3.852,0,0,1,1.716-.468l.15-.009a.3.3,0,0,0,.319-.372,1.439,1.439,0,0,0-.166-.472.147.147,0,0,0-.075-.074,2.145,2.145,0,0,0-.6-.2,3.356,3.356,0,0,0-1.4.255c-.342.137-.338.209-.374-.222-.018-.214-.039-.427-.067-.64a.121.121,0,0,1,.1-.156,5.608,5.608,0,0,1,2.177-.274,3.183,3.183,0,0,1,.69.129,1.392,1.392,0,0,1,1.049,1.337,3.8,3.8,0,0,1,.014.429c0,.888,0,1.775.007,2.663,0,.214.015.429.026.643,0,.092-.011.147-.125.145q-.515-.009-1.031,0c-.113,0-.131-.053-.126-.146.011-.179.018-.357.026-.536.015-.046.03-.092-.01-.136a.3.3,0,0,0-.067.132Zm-1.148-.253a1.165,1.165,0,0,0,.226-.03,1.266,1.266,0,0,0,.873-1.243c0-.087-.042-.109-.119-.109a3.34,3.34,0,0,0-1.037.143,1.079,1.079,0,0,0-.306.155.632.632,0,0,0-.242.721A.574.574,0,0,0,4439.135,2015.843Z" transform="translate(-4290.764 -1922.614)" fill="#09f"/>
    <path id="Trazado_17" data-name="Trazado 17" d="M1126.617,2014.364a1.572,1.572,0,0,0,.031.426,1.118,1.118,0,0,0,1,.942,2.87,2.87,0,0,0,1.493-.159,3.88,3.88,0,0,1,.417-.119,5.775,5.775,0,0,1,.1.688c.011.063.013.128.02.192.017.154.012.155-.137.215a4.408,4.408,0,0,1-1.161.247,4.1,4.1,0,0,1-1.618-.1,2,2,0,0,1-1.346-1.289,4.3,4.3,0,0,1-.163-1.788,2.72,2.72,0,0,1,.177-.755,2.377,2.377,0,0,1,.334-.592,2.229,2.229,0,0,1,1.755-.91,2.458,2.458,0,0,1,1.285.25,1.82,1.82,0,0,1,.891,1,3.351,3.351,0,0,1,.172,1.54c-.013.162-.02.164-.205.164h-2.77c-.079,0-.157,0-.236.008-.03,0-.047.005-.044.038Zm.946-.976h.859c.069,0,.121,0,.127-.1a.9.9,0,0,0-.589-.885.971.971,0,0,0-1.183.487,3.325,3.325,0,0,0-.135.313c-.052.131-.019.182.127.184.265,0,.53,0,.795,0Z" transform="translate(-1049.954 -1922.556)" fill="#09f"/>
    <path id="Trazado_18" data-name="Trazado 18" d="M895.646,1930.581c-.071,0-.142-.011-.214-.011h-1.374c-.209,0-.209,0-.21-.21,0-.279,0-.558,0-.837,0-.1.037-.144.138-.134.05,0,.1,0,.15,0h4.594c.178,0,.18,0,.181.173q0,.419,0,.837c0,.165,0,.169-.165.17-.458,0-.916,0-1.374,0-.355,0-.3-.04-.3.311q0,2.694,0,5.389c0,.268.02.239-.243.24-.329,0-.658,0-.988,0-.114,0-.155-.04-.145-.149.005-.05,0-.1,0-.15q0-2.662,0-5.324c0-.086,0-.172-.008-.257.005-.03,0-.05-.038-.05Z" transform="translate(-823.536 -1842.346)" fill="#09f"/>
    <path id="Trazado_19" data-name="Trazado 19" d="M3740.461,2020.3a.655.655,0,0,0,.057-.292.215.215,0,0,1,.034-.119c.144-.336.216-.7.356-1.034.118-.285.181-.589.3-.871s.19-.583.287-.873c.054-.164.052-.167.215-.167.387,0,.773,0,1.16,0a.188.188,0,0,1,.137.032c-.069.188-.14.379-.211.571q-.527,1.413-1.053,2.826c-.211.565-.427,1.128-.635,1.695a.154.154,0,0,1-.171.12c-.386,0-.773,0-1.16,0a.146.146,0,0,1-.161-.128c-.074-.269-.192-.522-.28-.783-.055-.164-.109-.336-.176-.491-.1-.224-.178-.457-.255-.683-.1-.284-.242-.546-.327-.834-.135-.459-.351-.892-.492-1.348-.1-.327-.266-.628-.349-.976.468,0,.933,0,1.4,0,.078,0,.105.036.13.108.163.471.332.939.5,1.407q.33.913.614,1.842c0,.039-.014.1.04.1s.038-.061.038-.1Z" transform="translate(-3606.322 -1928.018)" fill="#09f"/>
    <path id="Trazado_20" data-name="Trazado 20" d="M1506.5,2013.886c-.1-.016-.168-.028-.242-.047a1.709,1.709,0,0,0-1.32.027,1.1,1.1,0,0,0-.532.612,2.5,2.5,0,0,0-.07,1.456,1.107,1.107,0,0,0,1.284.9,2.016,2.016,0,0,0,.807-.18c.074-.036.118-.018.126.075.025.306.052.612.084.918a.137.137,0,0,1-.116.169,4.276,4.276,0,0,1-1.715.174c-.1-.01-.2-.024-.3-.031-.042,0-.081.009-.118-.028a.309.309,0,0,0-.177-.069,1.21,1.21,0,0,1-.52-.265,1.948,1.948,0,0,1-.777-1.248,4.4,4.4,0,0,1-.046-1.322,3.851,3.851,0,0,1,.074-.541,2.429,2.429,0,0,1,1.978-1.85,4.03,4.03,0,0,1,1.555.05c.157.035.163.041.147.178-.038.333-.081.665-.125,1.02Z" transform="translate(-1419.439 -1923.756)" fill="#09f"/>
    <path id="Trazado_21" data-name="Trazado 21" d="M3248.407,1906.617v3.544c0,.043,0,.086,0,.129,0,.161,0,.164-.169.165q-.515,0-1.031,0c-.156,0-.156,0-.161-.151,0-.036,0-.072,0-.107q0-3.587,0-7.173c0-.287-.039-.261.265-.263.279,0,.558,0,.837,0s.257-.021.258.249q0,1.8,0,3.608Z" transform="translate(-3126.17 -1816.29)" fill="#09f"/>
    <path id="Trazado_22" data-name="Trazado 22" d="M2724.521,2019.553v2.362c0,.05,0,.1,0,.15,0,.074-.035.1-.1.1-.143,0-.286,0-.429,0-.229,0-.458-.005-.687,0-.116,0-.155-.043-.143-.151a.776.776,0,0,0,0-.086q0-2.384,0-4.768c0-.26-.031-.238.245-.239q.472,0,.945,0c.171,0,.174,0,.174.179q0,1.224,0,2.448Z" transform="translate(-2613.536 -1928.001)" fill="#09f"/>
    <path id="Trazado_23" data-name="Trazado 23" d="M4926.988,1175.315a1.4,1.4,0,0,1,.746,1.419,1.6,1.6,0,0,1-1.026,1.345,3.866,3.866,0,0,1-.825.078,2.975,2.975,0,0,1-.591-.283,3.672,3.672,0,0,1-.394-.4.4.4,0,0,1-.119-.218.765.765,0,0,0-.051-.163,2.195,2.195,0,0,1-.076-.61,1.3,1.3,0,0,1,.3-.785,1.223,1.223,0,0,1,.523-.45,1.37,1.37,0,0,1,1.242-.065,1.549,1.549,0,0,0,.2.063c.005.042.042.053.071.071Zm-.8,2.481a1.189,1.189,0,1,0-1.164-1.2A1.148,1.148,0,0,0,4926.191,1177.8Z" transform="translate(-4767.728 -1104.227)" fill="#09f"/>
    <path id="Trazado_24" data-name="Trazado 24" d="M4708.371,2187.411l-.081-.015-.041-.032c-.04-.029-.081-.057-.12-.087a.865.865,0,0,1-.368-.739.814.814,0,0,1,.561-.766.8.8,0,0,1,.922.2.877.877,0,0,1-.233,1.391.891.891,0,0,1-.583.066Z" transform="translate(-4555.499 -2093.153)" fill="#09f"/>
    <path id="Trazado_25" data-name="Trazado 25" d="M4021.878,1911.335a.815.815,0,1,1,.04-1.63.793.793,0,0,1,.828.821.822.822,0,0,1-.868.809Z" transform="translate(-3883.559 -1823.086)" fill="#09f"/>
    <path id="Trazado_26" data-name="Trazado 26" d="M2716.817,1911.073a.779.779,0,0,1-.781-.854.766.766,0,0,1,.257-.553.8.8,0,0,1,.6-.227.819.819,0,1,1-.075,1.634Z" transform="translate(-2606.568 -1822.825)" fill="#09f"/>
    <path id="Trazado_27" data-name="Trazado 27" d="M145.48,42.167c-.668-.31-1.345-.6-2.032-.866-.439-.17-.874-.348-1.315-.512-1.534-.573-3.092-1.075-4.662-1.539-1.11-.328-2.229-.627-3.351-.91-.8-.2-1.606-.385-2.41-.572-1.05-.243-2.1-.463-3.16-.677-1.135-.23-2.275-.437-3.417-.632-1.022-.175-2.045-.343-3.072-.489-.864-.123-1.727-.251-2.591-.368-.709-.1-1.419-.183-2.129-.268s-1.393-.159-2.09-.232c-.79-.084-1.579-.166-2.37-.241-.719-.068-1.44-.128-2.16-.186-.849-.069-1.7-.138-2.547-.2-.807-.056-1.614-.1-2.421-.147-1.436-.091-2.873-.147-4.31-.2-.758-.028-1.516-.054-2.275-.068-1.324-.026-2.648-.052-3.972-.059-1.41-.008-2.821-.008-4.231.013-1.5.022-3.005.051-4.507.111a.09.09,0,0,1-.129,0l-2.019.083a.091.091,0,0,1-.129,0l-.773.039a.09.09,0,0,1-.129,0l-.73.04a.052.052,0,0,1-.086,0l-.687.04a.052.052,0,0,1-.086,0l-2.578.168a.052.052,0,0,1-.086,0c-.421.031-.842.058-1.263.093-1.362.115-2.723.231-4.083.368-1.231.124-2.462.257-3.69.407q-2.14.262-4.273.581-2.164.324-4.318.708c-2.005.362-4,.769-5.986,1.233a82.4,82.4,0,0,0-9.325,2.711,43.035,43.035,0,0,0-6.363,2.835,20.3,20.3,0,0,0-3.925,2.76,9.735,9.735,0,0,0-1.874,2.281,5.682,5.682,0,0,0-.775,2.345,5.322,5.322,0,0,0,.53,2.813,8.831,8.831,0,0,0,1.739,2.381,20.506,20.506,0,0,0,4.367,3.176,6.431,6.431,0,0,0,.746.393c.369.155.722.347,1.077.532a1.6,1.6,0,0,0,.407.22,4.54,4.54,0,0,1,.674.291,1.148,1.148,0,0,1,.506.241c.369.073.678.3,1.039.4a6.11,6.11,0,0,0,.805.316.2.2,0,0,1,.08.031,3.584,3.584,0,0,0,.676.278c.134.053.3.03.405.152l.057.026a4,4,0,0,1,.4.108,1.1,1.1,0,0,1,.407.169l.056.024c.5.138.991.337,1.5.464.175.044.337.148.513.177.246.042.472.141.711.2.215.055.425.135.635.21.383.137.8.183,1.178.331.3.115.617.136.918.241a4.526,4.526,0,0,0,.68.154c.112.02.205.081.315.11.241.063.484.11.728.155.317.059.618.183.933.248a1.669,1.669,0,0,1,.31.052,2.534,2.534,0,0,0,.44.106,3.591,3.591,0,0,1,.511.113c.171.067.367.023.521.14a2.937,2.937,0,0,1,.828.152c1.046.2,2.089.418,3.137.61,1.132.208,2.266.406,3.4.58.806.123,1.611.249,2.418.365q1.168.167,2.339.315c.774.1,1.548.188,2.323.275.874.1,1.749.2,2.625.281s1.738.16,2.608.232c1.02.084,2.04.167,3.06.238.828.058,1.657.1,2.486.148,1.415.088,2.83.142,4.246.2q1.341.051,2.683.074c1.431.025,2.863.048,4.295.054,1.818.007,3.636-.018,5.454-.065.873-.023,1.746-.041,2.619-.073q2.156-.078,4.311-.2c.543-.031,1.086-.061,1.629-.1q1.349-.094,2.7-.2c.592-.045,1.184-.092,1.776-.146q1.261-.115,2.521-.243.875-.088,1.75-.187,1.013-.116,2.024-.243c.418-.054.839-.09,1.253-.172a1.588,1.588,0,0,0,.386-.045c0-.024,0-.049,0-.073l-.385.043-1.133.091c-.984.08-1.968.165-2.953.238-.771.057-1.543.1-2.314.145-1.371.089-2.744.144-4.118.2q-1.32.05-2.64.074c-1.925.034-3.85.051-5.776.035-1.732-.015-3.464-.055-5.2-.106-.458-.014-.916-.029-1.373-.053q-1.855-.1-3.709-.2c-.714-.041-1.429-.087-2.142-.143-.935-.073-1.868-.155-2.8-.239-.805-.073-1.611-.145-2.414-.233-1.038-.114-2.075-.243-3.111-.367q-1.5-.18-2.993-.406-2.025-.308-4.043-.666-2.963-.531-5.892-1.221-1.643-.389-3.269-.85a62.2,62.2,0,0,1-6.63-2.242c-.613-.252-1.223-.513-1.822-.8s-1.219-.593-1.812-.921A22,22,0,0,1,50.8,57.629a11.584,11.584,0,0,1-2.425-2.355,5.822,5.822,0,0,1-1.05-2.185,4.807,4.807,0,0,1,.468-3.327,7.1,7.1,0,0,1,.834-1.247,13.147,13.147,0,0,1,2.788-2.468,28.537,28.537,0,0,1,4.264-2.335c.827-.382,1.674-.72,2.527-1.042q.74-.279,1.487-.541c.763-.265,1.533-.509,2.3-.749s1.545-.447,2.318-.667c.306-.087.615-.161.923-.243,1.176-.312,2.362-.578,3.549-.84.389-.086.782-.161,1.173-.237.333-.064.667-.147,1-.214,1.4-.282,2.811-.529,4.223-.755.565-.09,1.132-.169,1.7-.262s1.124-.149,1.684-.239c.339-.055.68-.095,1.021-.136,1.164-.142,2.329-.282,3.5-.405q1.676-.177,3.354-.321,1.711-.146,3.425-.257,1.982-.125,3.966-.215c1.265-.056,2.532-.092,3.8-.126.923-.024,1.846-.034,2.77-.044,2.169-.025,4.338,0,6.506.054q2.447.06,4.892.182c1.1.055,2.2.117,3.3.194,1.328.092,2.655.193,3.98.324.925.092,1.851.181,2.777.275.327.033.654.076.98.115l.98.118c.334.041.667.09,1,.122s.641.088.961.131c.915.121,1.827.26,2.739.4q2.874.44,5.721,1.029c.144.03.286.071.428.114a3.083,3.083,0,0,0,.441.061c.087.013.149.084.238.082a4.681,4.681,0,0,1,.993.2,4.113,4.113,0,0,1,.75.18c.169.067.361.052.534.115.06-.016.066.038.091.069a.414.414,0,0,1,.128,0c.509.154,1.031.26,1.55.375.092.02.162.076.252.1.312.078.619.179.931.255.4.1.785.223,1.183.317a7.165,7.165,0,0,1,.924.284c.163.063.34.088.5.149.5.187,1.006.365,1.522.509a.6.6,0,0,1,.305.135l.055.025c.14.047.3.027.418.145l.057.026a6.577,6.577,0,0,1,.873.3c.039.014.086.018.1.068l.05.027a7.325,7.325,0,0,0,.806.284c0-.021,0-.043,0-.064-.609-.359-1.254-.646-1.893-.942Z" transform="translate(18.688 12.317)" fill="#09f"/>
    <path id="Trazado_28" data-name="Trazado 28" d="M2713.931,914.5c0,.093,0,.188-.1.242C2713.836,914.65,2713.832,914.553,2713.931,914.5Z" transform="translate(-2604.412 -849.266)" fill="#09f"/>
    <path id="Trazado_29" data-name="Trazado 29" d="M3291.041,636.26c0,.055,0,.11-.072.123C3290.933,636.307,3290.984,636.282,3291.041,636.26Z" transform="translate(-3169.138 -577.005)" fill="#09f"/>
    <path id="Trazado_30" data-name="Trazado 30" d="M4072.153,1553.74a1.061,1.061,0,0,1-.247.039,1.572,1.572,0,0,0-.427.068c-.361.028-.723.055-1.081.11,0,.024,0,.049,0,.073a.75.75,0,0,0,.209-.015c.287-.04.573-.078.859-.117a.978.978,0,0,0,.249-.016,1.848,1.848,0,0,1,.437-.067c.029,0,.068,0,.072-.03.007-.053-.04-.046-.074-.046Z" transform="translate(-3931.832 -1474.771)" fill="#09f"/>
    <path id="Trazado_31" data-name="Trazado 31" d="M3013.239,1123.63a.089.089,0,0,1,.058.059c-.032.014-.066.028-.085-.016C3013.2,1123.653,3013.216,1123.636,3013.239,1123.63Z" transform="translate(-2897.358 -1053.903)" fill="#09f"/>
    <path id="Trazado_32" data-name="Trazado 32" d="M2663.284,1102.55c.01.055,0,.1-.063.11C2663.191,1102.594,2663.241,1102.574,2663.284,1102.55Z" transform="translate(-2554.882 -1033.276)" fill="#09f"/>
    <path id="Trazado_33" data-name="Trazado 33" d="M2673.25,1066.48c.01.055,0,.1-.064.112C2673.157,1066.526,2673.206,1066.5,2673.25,1066.48Z" transform="translate(-2564.633 -997.981)" fill="#09f"/>
    <path id="Trazado_34" data-name="Trazado 34" d="M2679.293,1044.58c.01.055,0,.1-.063.11C2679.2,1044.624,2679.251,1044.6,2679.293,1044.58Z" transform="translate(-2570.547 -976.551)" fill="#09f"/>
    <path id="Trazado_35" data-name="Trazado 35" d="M2689.25,1008.51c.01.055,0,.1-.064.112C2689.157,1008.556,2689.206,1008.535,2689.25,1008.51Z" transform="translate(-2580.289 -941.256)" fill="#09f"/>
    <path id="Trazado_36" data-name="Trazado 36" d="M2695.285,986.62c.01.055,0,.1-.063.11C2695.191,986.664,2695.242,986.644,2695.285,986.62Z" transform="translate(-2586.195 -919.837)" fill="#09f"/>
    <path id="Trazado_37" data-name="Trazado 37" d="M2705.252,950.55c.01.055,0,.1-.064.112C2705.159,950.6,2705.209,950.575,2705.252,950.55Z" transform="translate(-2595.948 -884.542)" fill="#09f"/>
    <path id="Trazado_38" data-name="Trazado 38" d="M2711.283,929.99c.048.06,0,.071-.042.081C2711.224,930.028,2711.227,929.995,2711.283,929.99Z" transform="translate(-2601.87 -864.424)" fill="#09f"/>
    <g id="Grupo_3" data-name="Grupo 3" transform="translate(166.056 55.426)">
      <path id="Trazado_39" data-name="Trazado 39" d="M5349.709,458.134a.773.773,0,0,0,.291.119l.028-.027a.7.7,0,0,0-.314-.156c0,.021,0,.043,0,.064Z" transform="translate(-5349.709 -458.07)" fill="#09f"/>
      <path id="Trazado_40" data-name="Trazado 40" d="M5363.258,465.32c-.009.009-.019.018-.028.027.014.031.02.072.068.062a.043.043,0,0,0,.028-.026C5363.333,465.333,5363.289,465.333,5363.258,465.32Z" transform="translate(-5362.939 -465.164)" fill="#09f"/>
    </g>
    <path id="Trazado_41" data-name="Trazado 41" d="M1189.434,2149.455c0-.033.014-.043.044-.038Z" transform="translate(-1112.772 -2057.646)" fill="#09f"/>
    <path id="Trazado_42" data-name="Trazado 42" d="M3756.6,636.068l-.045-.037C3756.589,636.026,3756.609,636.032,3756.6,636.068Z" transform="translate(-3624.737 -576.779)" fill="#09f"/>
    <path id="Trazado_43" data-name="Trazado 43" d="M1225.423,675.8l-.043.031Z" transform="translate(-1147.945 -615.695)" fill="#09f"/>
    <path id="Trazado_44" data-name="Trazado 44" d="M4029.823,2021.887q0-2.112,0-4.225c0-.214-.007-.429,0-.643,0-.094-.019-.144-.13-.142-.393.007-.786.007-1.179.009-.031,0-.043.013-.037.043q0,1.115-.005,2.23,0,1.351,0,2.7c0,.293-.029.256.268.258s.572,0,.858,0C4029.827,2022.119,4029.823,2022.154,4029.823,2021.887Z" transform="translate(-3890.801 -1927.956)" fill="#09f"/>
    <path id="Trazado_45" data-name="Trazado 45" d="M4780.375,809.95l-.015.045Z" transform="translate(-4626.537 -746.963)" fill="#09f"/>
    <path id="Trazado_46" data-name="Trazado 46" d="M2181.294,843.63l-.024.055A.048.048,0,0,1,2181.294,843.63Z" transform="translate(-2083.295 -779.919)" fill="#09f"/>
    <path id="Trazado_47" data-name="Trazado 47" d="M681.54,1354.2l.056.024A.048.048,0,0,1,681.54,1354.2Z" transform="translate(-615.791 -1279.518)" fill="#09f"/>
    <path id="Trazado_48" data-name="Trazado 48" d="M641.56,1340.11l.057.026A.048.048,0,0,1,641.56,1340.11Z" transform="translate(-576.671 -1265.731)" fill="#09f"/>
    <path id="Trazado_49" data-name="Trazado 49" d="M4971.575,1210.612c-.139,0-.243,0-.347,0-.071,0-.1-.047-.122-.1-.06-.129-.122-.258-.183-.386-.019-.039-.038-.077-.06-.114s-.074-.036-.116-.034c-.06,0-.06.052-.06.094,0,.143,0,.286,0,.428,0,.082-.032.109-.113.115-.256.017-.263.014-.263-.243,0-.414,0-.828,0-1.242,0-.152,0-.155.154-.157.179,0,.357,0,.535,0a.51.51,0,0,1,.5.334.478.478,0,0,1-.187.564c-.068.055-.064.094-.03.16C4971.379,1210.213,4971.468,1210.4,4971.575,1210.612Zm-.888-1.137q0,.213.161.215c.2,0,.314-.072.312-.211s-.1-.2-.3-.2Q4970.688,1209.278,4970.687,1209.475Z" transform="translate(-4812.406 -1137.409)" fill="#09f"/>
  </g>
</svg>
